<?xml version="1.0" encoding="UTF-8"?>
<!-- Created with EazyDraw for Mac ( http://www.eazydraw.com/ ) -->

<svg
    version="1.1"
    baseProfile="tiny"
    xmlns:dc="http://purl.org/dc/elements/1.1/"
    xmlns:cc="http://creativecommons.org/ns#"
    xmlns:rdf="http://www.w3.org/1999/02/22-rdf-syntax-ns#"
    xmlns:svg="http://www.w3.org/2000/svg"
    xmlns:xlink="http://www.w3.org/1999/xlink"
    xmlns="http://www.w3.org/2000/svg"
    width="612"
    height="792"
    viewBox="0, 0, 612, 792"
    preserveAspectRatio="none"
    id="svg2">
   <defs
       id="defs_7DF682EA"/>
   <metadata
       id="metadata7">
      <rdf:RDF>
         <cc:Work
             rdf:about="">
            <dc:format>image/svg+xml</dc:format>
            <dc:type rdf:resource="http://purl.org/dc/dcmitype/StillImage"/>
            <dc:title></dc:title>
         </cc:Work>
      </rdf:RDF>
   </metadata>
   <g
       id="layer_Paper"
       style="fill:#000000;stroke:#000000;fill-rule:nonzero;stroke-linecap:square;stroke-linejoin:miter;stroke-width:1;stroke-miterlimit:10">
      <path
          style="fill:none;stroke:#2FBEC0;stroke-width:22.27758"
          id="593F69FB"
          d="M165.177457782,395.10374371 C165.177457782,395.10374371 161.134969695,395.885809941 161.134969695,395.885809941 C144.24855425,398.325377942 41.9299293811,487.037333438 85.0278081226,502.296611929 C117.356204982,513.742836778 179.600898543,473.766165044 166.451720331,469.209645063
C158.164541966,466.337929947 66.7158988846,533.738150359 51.1529296951,597.09358392 C45.1603015636,621.489028568 148.150997793,574.002640845 121.585961252,580.286482657 C110.7333741,582.853614109 72.5606479471,629.054508029 71.3888048401,669.011457277
C70.3994318881,702.746625905 188.191971366,661.388233451 190.870691844,615.43259769 C191.499059446,604.652438632 140.41901979,706.460226285 217.630205371,742.628201099 C249.880336458,757.735104587 248.872499658,623.34155871 246.838646464,658.8592417
C244.468147431,700.255854576 246.150855627,710.736005253 270.495989787,723.990420455 C292.658141317,736.056337043 312.190801542,671.021271305 304.696024864,632.787438224 C300.115888446,609.422342916 310.427610979,689.590747612 339.060102937,705.58696677
C360.319823094,717.464212506 386.811594195,661.880456436 381.711281587,628.027671832 C378.495251032,606.681609731 386.790668128,715.347885223 426.122993092,708.888047831 C458.650525458,703.545811644 465.215819797,617.296815139 466.09675572,570.766949875"/>
      <path
          style="fill:none;stroke:#2FBEC0;stroke-width:22.27758"
          id="693F69FB"
          d="M463.615488249,549.468620916 C463.615488249,549.468620916 463.615488249,549.468620916 463.615488249,549.468620916 C521.624923332,536.637586663 555.336370684,495.150038955 559.299423649,435.875697581 C560.932085601,411.456401966 548.341586587,402.923347334 499.250899531,392.317244655
C496.605996861,391.745810212 551.587254181,342.019711766 540.955901622,319.119360275 C523.032149002,280.510892276 456.744809739,293.828417892 475.590626871,284.819751388 C494.472108735,275.794036445 520.709218537,218.672904212 494.423348542,199.838149967
C478.714892913,188.582486699 457.038665103,202.033064252 446.783505247,218.411490696 C442.598678137,225.095041611 457.312601989,228.517308463 455.366469082,236.15882889"/>
      <path
          style="fill:none;stroke:#2FBEC0;stroke-width:22.27758"
          id="793F69FB"
          d="M272.643078241,329.893479605 C273.097125816,330.575956879 273.097125816,330.575956879 273.097125816,330.575956879 C271.230550882,348.11650153 270.297263416,356.886773856 271.919531461,341.565891341 C269.26613602,386.082741536 269.683859788,391.910453051 270.519307327,403.565876082
C271.631284485,416.99632584 272.969406628,423.711550718 274.500279289,438.676842071"/>
      <path
          style="fill:none;stroke:#2FBEC0;stroke-width:22.27758"
          id="893F69FB"
          d="M344.766338512,333.613420109 C343.984204947,332.307047303 344.766338512,356.284553565 344.766338512,320.042959992 C344.543708733,342.898040112 344.432393844,354.325580173 344.209764066,377.180660295 C343.270032052,394.448214036 342.800166046,403.081990907 343.360255699,420.349544648
C343.218475683,427.135653434 343.897496508,430.528707825 345.255538158,437.314816611"/>
      <path
          style="fill:none;stroke:#2FBEC0;stroke-width:22.27758"
          id="993F69FB"
          d="M392.635490479,487.215563058 C392.635490479,487.215563058 396.081005305,482.274618637 387.775716759,493.574610956 C363.481779109,526.628406399 346.746560355,536.657674632 311.117839417,548.357325305 C265.644671407,563.289665472 208.843400961,533.206178923 247.902699633,523.006077233"/>
      <path
          style="fill:none;stroke:#2FBEC0;stroke-width:22.27758"
          id="A93F69FB"
          d="M166.360163448,384.822648304 C166.360163448,384.822648304 172.378476582,374.078146964 168.762851781,384.890017306 C156.563284749,421.370610298 175.656736822,248.77239212 232.50527262,199.103886435 C263.30027308,172.198327064 270.195598057,248.168258673 266.450455188,282.246021214
C259.832372629,342.465204691 256.881340518,183.125498889 311.172676647,152.443530364 C348.148532382,131.547156787 347.153579754,204.633315175 336.074989126,228.371323838 C324.536095077,253.095621017 347.005441243,100.852878584 413.652678973,91.5829604703
C446.895386274,86.9592553428 442.648688214,136.906374151 443.083749846,159.783822412 C445.423074201,282.79575425 444.459337939,159.121663318 444.454680588,158.319278907"/>
   </g>
</svg>
